<svg width="87" height="87" viewBox="0 0 87 87" fill="none" xmlns="http://www.w3.org/2000/svg">
<path d="M34.9162 40.2912L5.44512 69.7623C4.66998 70.5365 4.05505 71.456 3.6355 72.4681C3.21595 73.4802 3 74.5651 3 75.6607C3 76.7563 3.21595 77.8411 3.6355 78.8532C4.05505 79.8653 4.66998 80.7848 5.44512 81.559C7.00852 83.122 9.12868 84 11.3393 84C13.55 84 15.6702 83.122 17.2336 81.559L46.7047 52.0796M64.6916 53.6011L80.857 69.7664C82.4199 71.3298 83.2979 73.45 83.2979 75.6607C83.2979 77.8713 82.4199 79.9915 80.857 81.5549C79.2936 83.1178 77.1734 83.9958 74.9627 83.9958C72.7521 83.9958 70.6319 83.1178 69.0685 81.5549L43.1865 55.677M21.0894 20.6868L12.2397 23.6298L3.40256 8.89422L9.29679 3L24.0365 11.8413L21.0894 20.6868ZM21.0894 20.6868L32.8862 32.4836" stroke="#C8102E" stroke-width="6" stroke-linecap="round" stroke-linejoin="round"/>
<path d="M34.9167 40.2902C31.3985 31.3155 32.0863 19.5395 39.3395 12.2864C46.5926 5.03325 59.9734 3.44507 67.3391 7.86782L54.6669 20.54L53.4873 33.5081L66.4554 32.3326L79.1275 19.6563C83.5545 27.0261 81.9621 40.4069 74.709 47.6559C67.4558 54.909 55.6841 55.5968 46.7093 52.0786" stroke="#C8102E" stroke-width="6" stroke-linecap="round" stroke-linejoin="round"/>
</svg>
