<svg width="163" height="94" viewBox="0 0 163 94" fill="none" xmlns="http://www.w3.org/2000/svg">
<path d="M47.1818 88V81.1667C47.1818 72.1051 50.7975 63.4147 57.2334 57.0072C63.6693 50.5997 72.3983 47 81.5 47M81.5 47C90.6017 47 99.3307 50.5997 105.767 57.0072C112.203 63.4147 115.818 72.1051 115.818 81.1667V88M81.5 47C86.9611 47 92.1984 44.8402 96.06 40.9957C99.9215 37.1512 102.091 31.9369 102.091 26.5C102.091 21.0631 99.9215 15.8488 96.06 12.0043C92.1984 8.15982 86.9611 6 81.5 6C76.039 6 70.8016 8.15982 66.94 12.0043C63.0785 15.8488 60.9091 21.0631 60.9091 26.5C60.9091 31.9369 63.0785 37.1512 66.94 40.9957C70.8016 44.8402 76.039 47 81.5 47ZM6 88V81.1667C6 75.7297 8.16939 70.5155 12.0309 66.671C15.8925 62.8265 21.1299 60.6667 26.5909 60.6667M26.5909 60.6667C30.2316 60.6667 33.7232 59.2268 36.2976 56.6638C38.8719 54.1008 40.3182 50.6246 40.3182 47C40.3182 43.3754 38.8719 39.8992 36.2976 37.3362C33.7232 34.7732 30.2316 33.3333 26.5909 33.3333C22.9502 33.3333 19.4586 34.7732 16.8843 37.3362C14.3099 39.8992 12.8636 43.3754 12.8636 47C12.8636 50.6246 14.3099 54.1008 16.8843 56.6638C19.4586 59.2268 22.9502 60.6667 26.5909 60.6667ZM157 88V81.1667C157 75.7297 154.831 70.5155 150.969 66.671C147.108 62.8265 141.87 60.6667 136.409 60.6667M136.409 60.6667C140.05 60.6667 143.541 59.2268 146.116 56.6638C148.69 54.1008 150.136 50.6246 150.136 47C150.136 43.3754 148.69 39.8992 146.116 37.3362C143.541 34.7732 140.05 33.3333 136.409 33.3333C132.768 33.3333 129.277 34.7732 126.702 37.3362C124.128 39.8992 122.682 43.3754 122.682 47C122.682 50.6246 124.128 54.1008 126.702 56.6638C129.277 59.2268 132.768 60.6667 136.409 60.6667Z" stroke="#C8102E" stroke-width="12" stroke-linecap="round" stroke-linejoin="round"/>
</svg>
