<svg width="116" height="62" viewBox="0 0 116 62" fill="none" xmlns="http://www.w3.org/2000/svg">
<path d="M4 4H20.1659C22.1504 4 24.1079 4.44549 25.8831 5.30948L39.6663 11.9783C41.4415 12.8356 43.399 13.2811 45.3902 13.2811H52.4236C59.2274 13.2811 64.7488 18.6202 64.7488 25.2081C64.7488 25.4781 64.5666 25.7076 64.3033 25.7818L47.1519 30.527C44.0743 31.3772 40.7926 31.0797 37.9181 29.69L23.1831 22.5621" stroke="#C8102E" stroke-width="8" stroke-linecap="round" stroke-linejoin="round"/>
<path d="M64.7488 20.8767L95.751 11.3526C98.4499 10.5245 101.342 10.57 104.013 11.4827C106.685 12.3955 109 14.1288 110.628 16.4353C113.118 19.8777 112.106 24.8186 108.474 26.9111L57.7492 56.1853C56.1631 57.103 54.4067 57.6881 52.5872 57.9051C50.7676 58.1221 48.9229 57.9664 47.1654 57.4475L4 44.6362" stroke="#C8102E" stroke-width="8" stroke-linecap="round" stroke-linejoin="round"/>
</svg>
