<svg width="97" height="97" viewBox="0 0 97 97" fill="none" xmlns="http://www.w3.org/2000/svg">
<path d="M19.5078 41.9794C27.2678 57.23 39.77 69.6783 55.0206 77.4922L66.8761 65.6367C68.3311 64.1817 70.4867 63.6967 72.3728 64.3433C78.4083 66.3372 84.9289 67.415 91.6111 67.415C94.575 67.415 97 69.84 97 72.8039V91.6111C97 94.575 94.575 97 91.6111 97C41.0094 97 0 55.9906 0 5.38889C0 2.425 2.425 0 5.38889 0H24.25C27.2139 0 29.6389 2.425 29.6389 5.38889C29.6389 12.125 30.7167 18.5917 32.7106 24.6272C33.3033 26.5133 32.8722 28.615 31.3633 30.1239L19.5078 41.9794Z" fill="#C8102E"/>
</svg>
