<svg width="105" height="102" viewBox="0 0 105 102" fill="none" xmlns="http://www.w3.org/2000/svg">
<path d="M94.7561 76.5C97.4729 76.5 100.079 75.4254 102 73.5125C103.921 71.5996 105 69.0052 105 66.3V10.2C105 7.49479 103.921 4.90038 102 2.98751C100.079 1.07464 97.4729 0 94.7561 0H40.7707C42.5634 3.111 43.5366 6.63 43.5366 10.2H94.7561V66.3H48.6585V76.5M69.1463 25.5V35.7H38.4146V102H28.1707V71.4H17.9268V102H7.68293V61.2H0V35.7C0 32.9948 1.07926 30.4004 3.00037 28.4875C4.92147 26.5746 7.52705 25.5 10.2439 25.5H69.1463ZM33.2927 10.2C33.2927 12.9052 32.2134 15.4996 30.2923 17.4125C28.3712 19.3254 25.7656 20.4 23.0488 20.4C20.3319 20.4 17.7264 19.3254 15.8052 17.4125C13.8841 15.4996 12.8049 12.9052 12.8049 10.2C12.8049 7.49479 13.8841 4.90038 15.8052 2.98751C17.7264 1.07464 20.3319 0 23.0488 0C25.7656 0 28.3712 1.07464 30.2923 2.98751C32.2134 4.90038 33.2927 7.49479 33.2927 10.2Z" fill="#C8102E"/>
</svg>
