<svg width="102" height="102" viewBox="0 0 102 102" fill="none" xmlns="http://www.w3.org/2000/svg">
<path d="M6.375 6.375V95.625H51V102H0V0H55.5322L82.875 27.3428V63.75H76.5V31.875H51V6.375H6.375ZM57.375 10.9072V25.5H71.9678L57.375 10.9072ZM12.75 25.5H44.625V31.875H12.75V25.5ZM70.125 38.25V44.625H12.75V38.25H70.125ZM12.75 57.375V51H70.125V57.375H12.75ZM12.75 70.125V63.75H51V70.125H12.75ZM12.75 82.875V76.5H51V82.875H12.75ZM70.125 70.125H102V76.5H70.125V70.125ZM70.125 89.25V82.875H102V89.25H70.125ZM70.125 102V95.625H102V102H70.125ZM57.375 76.5V70.125H63.75V76.5H57.375ZM57.375 89.25V82.875H63.75V89.25H57.375ZM57.375 102V95.625H63.75V102H57.375Z" fill="#C8102E"/>
</svg>
