<svg width="76" height="102" viewBox="0 0 76 102" fill="none" xmlns="http://www.w3.org/2000/svg">
<path d="M9.5 0C4.25521 0 0 4.2832 0 9.5625V92.4375C0 97.7168 4.25521 102 9.5 102H28.5V86.0625C28.5 80.7832 32.7552 76.5 38 76.5C43.2448 76.5 47.5 80.7832 47.5 86.0625V102H66.5C71.7448 102 76 97.7168 76 92.4375V9.5625C76 4.2832 71.7448 0 66.5 0H9.5ZM12.6667 47.8125C12.6667 46.0594 14.0917 44.625 15.8333 44.625H22.1667C23.9083 44.625 25.3333 46.0594 25.3333 47.8125V54.1875C25.3333 55.9406 23.9083 57.375 22.1667 57.375H15.8333C14.0917 57.375 12.6667 55.9406 12.6667 54.1875V47.8125ZM34.8333 44.625H41.1667C42.9083 44.625 44.3333 46.0594 44.3333 47.8125V54.1875C44.3333 55.9406 42.9083 57.375 41.1667 57.375H34.8333C33.0917 57.375 31.6667 55.9406 31.6667 54.1875V47.8125C31.6667 46.0594 33.0917 44.625 34.8333 44.625ZM50.6667 47.8125C50.6667 46.0594 52.0917 44.625 53.8333 44.625H60.1667C61.9083 44.625 63.3333 46.0594 63.3333 47.8125V54.1875C63.3333 55.9406 61.9083 57.375 60.1667 57.375H53.8333C52.0917 57.375 50.6667 55.9406 50.6667 54.1875V47.8125ZM33.25 12.75H42.75C44.4917 12.75 45.9167 14.1844 45.9167 15.9375C45.9167 17.6906 44.4917 19.125 42.75 19.125H36.4167V31.875H39.5833V28.6875C39.5833 26.9344 41.0083 25.5 42.75 25.5C44.4917 25.5 45.9167 26.9344 45.9167 28.6875V33.4688C45.9167 36.1184 43.799 38.25 41.1667 38.25H34.8333C32.201 38.25 30.0833 36.1184 30.0833 33.4688V15.9375C30.0833 14.1844 31.5083 12.75 33.25 12.75ZM60.1667 19.125C58.425 19.125 57 20.5594 57 22.3125V28.6875C57 30.4406 58.425 31.875 60.1667 31.875C61.9083 31.875 63.3333 30.4406 63.3333 28.6875V22.3125C63.3333 20.5594 61.9083 19.125 60.1667 19.125ZM50.6667 22.3125C50.6667 17.0332 54.9219 12.75 60.1667 12.75C65.4115 12.75 69.6667 17.0332 69.6667 22.3125V28.6875C69.6667 33.9668 65.4115 38.25 60.1667 38.25C54.9219 38.25 50.6667 33.9668 50.6667 28.6875V22.3125ZM12.1323 14.1645L19 24.5238V15.9375C19 14.1844 20.425 12.75 22.1667 12.75C23.9083 12.75 25.3333 14.1844 25.3333 15.9375V35.0625C25.3333 36.477 24.4229 37.7121 23.0771 38.1105C21.7313 38.509 20.3062 37.991 19.5344 36.8355L12.6667 26.4563V35.0625C12.6667 36.8156 11.2417 38.25 9.5 38.25C7.75833 38.25 6.33333 36.8156 6.33333 35.0625V15.9375C6.33333 14.523 7.24375 13.2879 8.58958 12.8895C9.93542 12.491 11.3604 13.009 12.1323 14.1645Z" fill="#C8102E"/>
</svg>
