<?xml version="1.0" encoding="UTF-8" standalone="no"?><!DOCTYPE svg PUBLIC "-//W3C//DTD SVG 1.1//EN" "http://www.w3.org/Graphics/SVG/1.1/DTD/svg11.dtd"><svg width="100%" height="100%" viewBox="0 0 2000 2000" version="1.1" xmlns="http://www.w3.org/2000/svg" xmlns:xlink="http://www.w3.org/1999/xlink" xml:space="preserve" xmlns:serif="http://www.serif.com/" style="fill-rule:evenodd;clip-rule:evenodd;stroke-linejoin:round;stroke-miterlimit:2;"><g id="LOGO"><g id="New-logo-PDIA" serif:id="New logo PDIA"><g id="PDIA-" serif:id="PDIA "><path d="M731.69,742.322l172.786,0c24.671,0.363 44.716,3.265 60.135,8.707c26.122,9.252 45.26,26.213 57.414,50.883c9.796,19.954 14.739,41.541 14.83,64.761c0.091,23.22 -2.041,45.351 -6.394,66.393c-11.428,53.332 -31.745,98.502 -60.951,135.508c-39.546,49.886 -89.613,74.829 -150.201,74.829l-172.786,0l45.3,-213.329l18.763,0c19.773,0 36.19,-4.807 49.251,-14.421c11.679,-8.597 19.876,-21.689 24.593,-39.278l-41.854,197.37l77.277,0c39.546,0 71.291,-19.501 95.236,-58.502c13.061,-21.405 22.675,-46.893 28.843,-76.461c8.707,-40.816 8.979,-72.153 0.816,-94.012c-8.163,-21.859 -31.292,-32.789 -69.386,-32.789l-77.277,0l-10.883,51.32c2.703,-17.409 -0.024,-30.072 -8.182,-37.987c-9.161,-8.889 -23.628,-13.333 -43.401,-13.333l-18.72,0l14.792,-69.659Zm431.339,120.299l-59.623,280.782l-83.264,0l59.623,-280.782l83.264,0Zm-75.472,-36.692l17.754,-83.607l83.264,0l-17.754,83.607l-83.264,0Zm366.34,-83.607l56.87,401.081l-90.883,0l-8.435,-82.447l-147.752,0l-45.169,82.447l-87.617,0l228.295,-401.081l94.692,0Zm-67.754,91.699l-85.168,157.82l101.767,0l-16.598,-157.82Z" style="fill:#ed1c1f;"/><path d="M853.711,773.342c19.41,20.68 24.58,52.697 15.51,96.053c-10.159,47.346 -29.297,80.815 -57.414,100.406c-28.117,19.591 -64.398,29.387 -108.842,29.387l-85.168,0l-30.476,144.215l-83.264,0l85.168,-401.081l174.691,0c40.271,0 70.203,10.34 89.794,31.02Zm-118.093,38.639l-78.094,0l-25.034,118.093l78.094,0c19.773,0 36.19,-4.807 49.251,-14.421c13.061,-9.614 21.768,-24.852 26.122,-45.713c4.535,-20.861 2.222,-35.736 -6.939,-44.625c-9.161,-8.889 -23.628,-13.333 -43.401,-13.333Z"/></g><g transform="matrix(45.188738,0,0,45.188738,1514.694138,1249.277452)"></g><text x="480.869px" y="1249.277px" style="font-family:'Menlo-BoldItalic', 'Menlo', monospace;font-weight:700;font-style:italic;font-size:45.189px;">PERSONAL DEVELOPMENT INITIATIVE AFRICA</text></g></g></svg>